<?xml version="1.0" encoding="UTF-8"?>
<svg id="Layer_1" xmlns="http://www.w3.org/2000/svg" viewBox="0 0 32 32">
  <defs>
    <style>
      .cls-1 {
        fill: #fff;
      }

      .cls-2 {
        fill: #f6871f;
      }

      .cls-3 {
        fill: #0d964a;
      }
    </style>
  </defs>
  <rect class="cls-1" x=".28" y=".33" width="31.42" height="31.42" rx="3.44" ry="3.44"/>
  <g>
    <path class="cls-3" d="M4.09,22.49V6.83c0-2.41,2.56-3.47,4.51-2.06l7.4,5.34,7.4-5.34c1.96-1.41,4.51-.35,4.51,2.06v15.66c0,1.96-1.05,3.01-3.01,3.01H6.82c-1.78,0-2.73-1.05-2.73-3.01ZM14.1,19.09c0-1.47-1.14-2.54-2.68-2.54s-2.68,1.07-2.68,2.54,1.14,2.55,2.68,2.55,2.68-1.07,2.68-2.55h0ZM23.3,19.09c0-1.47-1.14-2.54-2.68-2.54s-2.68,1.07-2.68,2.54,1.14,2.55,2.68,2.55,2.68-1.07,2.68-2.55h0Z"/>
    <path class="cls-2" d="M11.24,19.76c0,.42.33.73.76.73s.77-.31.77-.73-.33-.72-.77-.72-.76.31-.76.72"/>
    <path class="cls-2" d="M20.26,19.76c0,.42.33.73.76.73s.77-.31.77-.73-.33-.72-.77-.72-.76.31-.76.72"/>
  </g>
</svg>