<?xml version="1.0" encoding="UTF-8"?>
<svg id="Layer_1" xmlns="http://www.w3.org/2000/svg" viewBox="0 0 430 430">
  <defs>
    <style>
      .cls-1 {
        fill: #fff;
      }

      .cls-2 {
        fill: #f6871f;
      }

      .cls-3 {
        fill: #0d964a;
      }

      .cls-4 {
        fill: #ef5da2;
      }
    </style>
  </defs>
  <g>
    <rect class="cls-4" x="-12" y="-12" width="458" height="460"/>
    <rect class="cls-1" x="32" y="182" width="374" height="190"/>
  </g>
  <g>
    <path class="cls-3" d="M13.93,338.09V74.67c0-40.54,43.02-58.35,75.91-34.62l124.5,89.88,124.5-89.88c32.9-23.74,75.91-5.92,75.91,34.62v263.42c0,32.9-17.71,50.61-50.61,50.61H59.93c-29.91,0-46-17.71-46-50.61ZM182.31,280.9c0-24.75-19.18-42.76-45.14-42.76s-45.09,18.02-45.09,42.76,19.18,42.92,45.09,42.92,45.14-18.02,45.14-42.92h0ZM337.17,280.9c0-24.75-19.18-42.76-45.14-42.76s-45.09,18.02-45.09,42.76,19.18,42.92,45.09,42.92,45.14-18.02,45.14-42.92h0Z"/>
    <path class="cls-2" d="M134.32,292.12c0,7.1,5.47,12.24,12.86,12.24s12.87-5.14,12.87-12.24-5.47-12.19-12.87-12.19-12.86,5.14-12.86,12.19"/>
    <path class="cls-2" d="M285.92,292.12c0,7.1,5.47,12.24,12.86,12.24s12.87-5.14,12.87-12.24-5.47-12.19-12.87-12.19-12.86,5.14-12.86,12.19"/>
  </g>
</svg>