<svg xmlns="http://www.w3.org/2000/svg" viewBox="0 0 213.8 254.6"><title>Kindergalactic green cat logo</title><defs><style>.cls-1{fill:#365aa9}.cls-2{fill:#d42027}.cls-3{fill:#f6871f}.cls-4{fill:#ee5ea2}.cls-5{fill:#93298e}.cls-7{fill:#019449}</style></defs><path d="M14 211.5V191c0-2.7 1.4-4.1 4-4.1h19c3.2 0 4.4 2 3 4.8l-4.3 8.1 6 10.8c1.5 2.8.3 4.9-3 4.9H18.2c-2.7 0-4.1-1.5-4.1-4.1Zm13.6-4.6c0-2-1.6-3.5-3.7-3.5s-3.6 1.5-3.6 3.5 1.6 3.4 3.6 3.4 3.7-1.4 3.7-3.4Z" class="cls-4"/><path d="M47 211.5V191c0-2.7 1.5-4.1 4.2-4.1h5.3c2.7 0 4.1 1.4 4.1 4v20.5c0 2.7-1.4 4-4 4h-5.4c-2.7 0-4.1-1.3-4.1-4Z" class="cls-3"/><path d="M67.4 211.5V190c0-3.2 3.2-4.4 5.8-2.5l8.7 6v-2.4c0-2.7 1.5-4.1 4.1-4.1h5.4c2.6 0 4 1.4 4 4v20.5c0 2.7-1.4 4-4 4h-20c-2.6 0-4-1.3-4-4Zm13.6-4.6c0-2-1.6-3.5-3.7-3.5s-3.6 1.5-3.6 3.5 1.6 3.4 3.6 3.4S81 209 81 207Z" class="cls-5"/><path d="M102.2 211.5V191c0-2.7 1.5-4.1 4.1-4.1h9.3c10.7 0 14.5 7.3 14.5 14.2s-3.8 14.4-14.5 14.4h-9.3c-2.6 0-4-1.5-4-4.1Zm19.4-14.7c0-2-1.5-3.5-3.6-3.5s-3.6 1.5-3.6 3.5 1.5 3.5 3.6 3.5 3.6-1.5 3.6-3.5Z" class="cls-7"/><path d="M135.6 211.5V191c0-2.7 1.5-4.1 4.1-4.1h16.5c2.7 0 4.1 1.4 4.1 4v1.4c0 2.7-1.4 4.1-4 4.1H155v1.3c0 2.6-1.4 4-4 4h-2v2.2h7.1c2.7 0 4.1 1.4 4.1 4v3.5c0 2.7-1.4 4-4 4h-16.6c-2.6 0-4-1.3-4-4Z" class="cls-1"/><path d="M166.8 211.5V191c0-2.7 1.4-4.1 4-4.1h9.3c10.7 0 14.5 4.5 14.5 11 0 4-1.9 6.8-4.5 8.5l4.5 5c1.7 2 1.3 4-1.6 4H171c-2.7 0-4.1-1.3-4.1-4Zm20.3-14.7c0-2-1.6-3.4-3.7-3.4s-3.6 1.4-3.6 3.5 1.6 3.4 3.6 3.4 3.7-1.4 3.7-3.5Z" class="cls-2"/><path d="M36 244.2h-1c-1 0-1.6-.3-2-1l-.7-1a7.8 7.8 0 0 1-5.8 2.5c-6.2 0-10.8-4.5-10.8-10.6s4.8-10.6 11.2-10.6c2.7 0 5.1.8 7 2.2.8.6 1 1.9 0 2.5l-1 .5c-1.5.9-2.4 0-3.7 0-1.5 0-2.6 1-2.6 2.4s1.1 2.4 2.6 2.4c1 0 1.7-.5 2.3-1.2.6-.8 1.2-1 2.3-1h2c1.7 0 2 1.2 2 2.7v8.3c0 1.3-.5 1.9-1.7 1.9Z" class="cls-5"/><path d="m41.4 240.7 9-15.6c1-2 2.8-2 4 0l8.9 15.6c1.1 2 .4 3.5-2 3.5h-18c-2.4 0-3-1.5-2-3.5Zm11.7-2.9c0-1.4-1-2.4-2.5-2.4s-2.6 1-2.6 2.4 1 2.5 2.6 2.5 2.5-1 2.5-2.5Z" class="cls-2"/><path d="M67.2 241.3v-14.5c0-1.8 1-2.8 2.8-2.8h3.8c2 0 3 1 3 2.9v3.8h3.9c1.8 0 2.9 1 2.9 2.9v7.7c0 1.9-1 2.9-3 2.9H70.2c-2 0-3-1-3-2.9Z" class="cls-7"/><path d="m86.9 240.7 8.9-15.6c1-2 3-2 4 0l9 15.6c1.1 2 .4 3.5-2 3.5h-18c-2.4 0-3.1-1.5-2-3.5Zm11.7-2.9c0-1.4-1-2.4-2.5-2.4s-2.6 1-2.6 2.4 1 2.5 2.5 2.5 2.6-1 2.6-2.5Z" class="cls-1"/><path d="M111 234c0-6 4.6-10.5 11-10.5 2.8 0 5.2.8 7 2.1.9.7 1.1 2 0 2.6l-1 .5c-1.4.9-2.5-.2-3.8-.2-1.5 0-2.6 1-2.6 2.4s1.1 2.5 2.6 2.5c1 0 1.7-.6 2.3-1.2.8-1 1.4-1 2.4-1h2c1.7 0 2.3 1.3 2.3 2.8 0 6.2-4.7 10.7-11.1 10.7s-11.2-4.5-11.2-10.7Z" class="cls-3"/><path d="M141.1 241.3V236H139c-1.5 0-2.3-1-2.3-3V227c0-2 1-3 2.9-3h12.8c2 0 3 1 3 3v6.2c0 1.9-.9 2.9-2.3 2.9h-2.3v5.3c0 1.9-1 2.9-2.9 2.9H144c-1.9 0-2.9-1-2.9-2.9Z" class="cls-7"/><path d="M159.8 241.3v-14.5c0-1.8 1-2.8 2.8-2.8h3.8c2 0 3 1 3 2.9v14.4c0 1.9-1 2.9-3 2.9h-3.8c-1.8 0-2.9-1-2.9-2.9Z" class="cls-4"/><path d="M173.3 234c0-6 4.7-10.5 11.1-10.5 2.7 0 5.1.8 7 2.1.8.7 1 2 0 2.6l-1 .5c-1.5.9-2.5-.2-3.9-.2s-2.5 1-2.5 2.4 1 2.5 2.5 2.5c1 0 1.7-.6 2.3-1.2.8-1 1.4-1 2.5-1h2c1.7 0 2.3 1.3 2.3 2.8 0 6.2-4.8 10.7-11.2 10.7s-11.1-4.5-11.1-10.7Z" class="cls-5"/><path d="M12.3 152.8V28.3C12.3 9 32.6.6 48.3 11.8L107 54.3l59-42.5C181.6.6 202 9 202 28.2v124.6c0 15.6-8.4 24-24 24H34c-14 0-21.7-8.4-21.7-24Zm79.7-27c0-11.7-9.1-20.3-21.4-20.3s-21.3 8.6-21.3 20.3 9 20.3 21.3 20.3S92 137.6 92 125.8Zm73.3 0c0-11.7-9.1-20.3-21.4-20.3s-21.3 8.6-21.3 20.3 9 20.3 21.3 20.3 21.4-8.5 21.4-20.3Z" style="fill:#0e9649"/><path d="M69.3 131.1c0 3.4 2.6 5.8 6 5.8s6.2-2.4 6.2-5.8-2.6-5.8-6.1-5.8-6.1 2.5-6.1 5.8M141 131.1c0 3.4 2.6 5.8 6.1 5.8s6.1-2.4 6.1-5.8-2.6-5.8-6-5.8-6.2 2.5-6.2 5.8" class="cls-3"/></svg>